<?xml version="1.0" encoding="utf-8"?>
<?xml-stylesheet type="text/xsl" href="rss1.xsl"?>
<rss version="2.0" xmlns:atom="http://www.w3.org/2005/Atom" xmlns:content="http://purl.org/rss/1.0/modules/content/" xmlns:dc="http://purl.org/dc/elements/1.1/" xmlns:media="http://search.yahoo.com/mrss/">
<channel>
 <title>Getty</title>
 <link>http://www.gettyimg.com/</link>
 <atom:link href="http://www.gettyimg.com/" rel="self" type="application/rss+xml" />

 
                <item>
                <title><![CDATA[【HD Live Performances】HDTV - Zara Larsson - The Lateish Show with Mo Gilligan - 2023-06-16 1080i HDTV DD2.0 H.264]]></title>
                <link><![CDATA[https://sharemania.us/threads/zara-larsson-the-lateish-show-with-mo-gilligan-2023-06-16-1080i-hdtv-dd2-0-h-264.222890/]]></link>
                <description><![CDATA[<article>
<blockquote class="messageText SelectQuoteContainer ugc baseHtml">
<div style="text-align: center"><b><span style="font-size: 22px"><span style="color: #ff0000">Zara Larsson - The Lateish Show with Mo Gilligan - 2023-06-16 1080i HDTV DD2.0 H.264<br>
<br>
<img src="https://i.postimg.cc/D0fYbJb1/thumbs.png" class="bbCodeImage LbImage" alt="[​IMG]" data-url="https://i.postimg.cc/D0fYbJb1/thumbs.png" style=""> </span></span></b>​</div><span style="font-size: 18px"><br>
<span style="text-decoration: underline"><b>Tracklist:</b></span></span><br>
Can't Tame Her<br>
End Of Time<br>
Symphony<br>
<br>
<br>
<div class="bbCodeBlock bbCodeCode">
<div class="type">Code:</div>
<pre>General
ID                          : 1 (0x1)
Complete name               : Zara Larsson - End Of Time - Channel 4 - The Lateish Show with Mo Gilligan - 2023-06-16 1080i HDTV DD2.0 H.264.ts
Format                      : MPEG-TS
File size                   : 88.2 MiB
Duration                    : 1 min 17 s
Overall bit rate mode       : Variable
Overall bit rate            : 9 605 kb/s
Frame rate                  : 25.000 FPS

Video
ID                          : 2305 (0x901)
Menu ID                     : 21200 (0x52D0)
Format                      : AVC
Format/Info                 : Advanced Video Codec
Format profile              : Main@L4
Format settings             : CABAC / 4 Ref Frames
Format settings, CABAC      : Yes
Format settings, Reference  : 4 frames
Codec ID                    : 27
Duration                    : 1 min 16 s
Bit rate                    : 8 742 kb/s
Width                       : 1 920 pixels
Height                      : 1 080 pixels
Display aspect ratio        : 16:9
Frame rate                  : 25.000 FPS
Standard                    : Component
Color space                 : YUV
Chroma subsampling          : 4:2:0
Bit depth                   : 8 bits
Scan type                   : Interlaced
Scan type, store method     : Separated fields
Scan order                  : Top Field First
Bits/(Pixel*Frame)          : 0.169
Stream size                 : 80.0 MiB (91%)
Color range                 : Limited
Color primaries             : BT.709
Transfer characteristics    : BT.709
Matrix coefficients         : BT.709

Audio
ID                          : 2306 (0x902)
Menu ID                     : 21200 (0x52D0)
Format                      : AC-3
Format/Info                 : Audio Coding 3
Commercial name             : Dolby Digital
Codec ID                    : 6
Duration                    : 1 min 16 s
Bit rate mode               : Constant
Bit rate                    : 384 kb/s
Channel(s)                  : 2 channels
Channel layout              : L R
Sampling rate               : 48.0 kHz
Frame rate                  : 31.250 FPS (1536 SPF)
Compression mode            : Lossy
Stream size                 : 3.51 MiB (4%)
Language                    : English
Service kind                : Complete Main

Text #1
ID                          : 2308 (0x904)
Menu ID                     : 21200 (0x52D0)
Format                      : DVB Subtitle
Codec ID                    : 6
Duration                    : 1 min 7 s
Delay relative to video     : 9 s 620 ms
Language                    : English

Text #2
ID                          : 2309 (0x905)-888
Menu ID                     : 21200 (0x52D0)
Format                      : Teletext Subtitle
Language                    : English

</pre>
</div>
<div class="bbCodeBlock bbCodeVfcHH HiddenContent">
<div class="attribution type">Hidden Content:</div>
<blockquote>You must either reply or click 'Like' to see the hidden information contained here.</blockquote>
</div>
<div class="messageTextEndMarker">&nbsp;</div>
</blockquote>
</article>]]></description>
                <author><![CDATA[Lassox]]></author>
                </item>

                </channel></rss>